# xmcd
# 
# Track frame offsets:
#     150
#     13199
#     30531
#     42508
# 
# Disc length: 909
# 
# Revision: 0
# Processed by: cddbd v1.5.2PL0 Copyright (c) Steve Scherf et al.
# Submitted via: fre:ac v1.0.17
# 
DISCID=2b038b04
DTITLE=Various Artist - I love you both
DYEAR=2000
DGENRE=Stoner Rock
TTITLE0=Superdice - Prime
TTITLE1=Superdice - Sheila
TTITLE2=Sparzanza - Be Myself
TTITLE3=Sparzanza - Angel of Vengeance
EXTD=
EXTT0=
EXTT1=
EXTT2=
EXTT3=
PLAYORDER=
